<svg xmlns="http://www.w3.org/2000/svg" xmlns:svg="http://www.w3.org/2000/svg" id="svg2" width="110.46" height="110.46" x="0" y="0" enable-background="new -29.809 -29.81 170 170" version="1.1" viewBox="-29.809 -29.81 110.46 110.46" xml:space="preserve"><metadata id="metadata14"/><g id="g6" transform="translate(-29.809,-29.81)"><g id="g8"><path id="path10" d="m 56.531,79.886 h -2.055 v 4.273 h 2.113 c 1.363,0 1.926,-1.074 1.891,-2.207 -0.031,-1.105 -0.468,-2.066 -1.949,-2.066 z M 55.234,0 C 24.727,0 0,24.727 0,55.229 0,85.734 24.727,110.46 55.234,110.46 85.733,110.46 110.46,85.733 110.46,55.229 110.46,24.727 85.733,0 55.234,0 z m 0.219,15.588 c 4.358,0 7.882,3.537 7.882,7.889 0,4.352 -3.523,7.885 -7.882,7.885 -4.352,0 -7.883,-3.533 -7.883,-7.885 0,-4.352 3.532,-7.889 7.883,-7.889 z m 0,18.693 c 4.358,0 7.882,3.518 7.882,7.877 0,4.352 -3.523,7.883 -7.882,7.883 -4.352,0 -7.883,-3.531 -7.883,-7.883 0,-4.359 3.532,-7.877 7.883,-7.877 z M 36.293,15.588 c 4.355,0 7.887,3.537 7.887,7.889 0,4.352 -3.531,7.885 -7.887,7.885 -4.359,0 -7.887,-3.533 -7.887,-7.885 0,-4.352 3.528,-7.889 7.887,-7.889 z m 0,18.693 c 4.355,0 7.887,3.518 7.887,7.877 0,4.352 -3.531,7.883 -7.887,7.883 -4.359,0 -7.887,-3.531 -7.887,-7.883 0,-4.359 3.528,-7.877 7.887,-7.877 z m 0,19.172 c 4.355,0 7.887,3.531 7.887,7.885 0,4.352 -3.531,7.883 -7.887,7.883 -4.359,0 -7.887,-3.531 -7.887,-7.883 0,-4.354 3.528,-7.885 7.887,-7.885 z m 9.285,33.53 c 0,1.941 -0.055,4.332 -2.602,6.129 -1.664,1.168 -3.633,1.41 -5.402,1.41 -1.777,0 -3.738,-0.242 -5.41,-1.41 -2.543,-1.797 -2.613,-4.188 -2.613,-6.129 V 75.907 h 5.309 v 11.057 c 0.02,1.051 0.117,1.879 0.934,2.547 0.563,0.469 1.047,0.621 1.789,0.629 0.719,-0.008 1.203,-0.16 1.762,-0.629 0.813,-0.668 0.922,-1.496 0.941,-2.547 V 75.907 h 5.293 v 11.076 z m 9.875,-33.53 c 4.358,0 7.882,3.531 7.882,7.885 0,4.352 -3.523,7.883 -7.882,7.883 -4.352,0 -7.883,-3.531 -7.883,-7.883 0,-4.354 3.532,-7.885 7.883,-7.885 z m 5.62,33.753 c -1.012,0.723 -2.159,0.992 -5.112,0.992 l -1.535,-0.031 v 5.969 H 49.801 V 75.907 h 7.633 c 3.722,0 6.022,2.242 6.022,6.271 0,2.161 -0.844,3.966 -2.383,5.028 z m 19.055,-5.789 c -1.816,-1.516 -2.531,-1.406 -3.949,-1.406 -2.766,0 -4.688,2.102 -4.688,5.094 0,3.008 1.949,5.09 4.711,5.09 1.5,0 2.242,-0.203 3.926,-1.441 v 4.723 c -1.746,0.852 -2.734,1.094 -4.414,1.094 -5.508,0 -9.387,-3.914 -9.387,-9.465 0,-5.502 3.965,-9.58 9.332,-9.58 1.645,0 2.711,0.266 4.469,1.119 v 4.772 z M 74.171,69.221 c -4.359,0 -7.887,-3.531 -7.887,-7.883 0,-4.354 3.527,-7.885 7.887,-7.885 4.348,0 7.887,3.531 7.887,7.885 0,4.351 -3.539,7.883 -7.887,7.883 z m 0,-19.18 c -4.359,0 -7.887,-3.531 -7.887,-7.883 0,-4.359 3.527,-7.877 7.887,-7.877 4.348,0 7.887,3.518 7.887,7.877 0,4.352 -3.539,7.883 -7.887,7.883 z m 0,-18.68 c -4.359,0 -7.887,-3.533 -7.887,-7.885 0,-4.352 3.527,-7.889 7.887,-7.889 4.348,0 7.887,3.537 7.887,7.889 0,4.352 -3.539,7.885 -7.887,7.885 z" style="fill:#007bc0;stroke:none"/></g></g></svg>